<svg version="1.1" xmlns="http://www.w3.org/2000/svg" xmlns:xlink="http://www.w3.org/1999/xlink" width="65.5" height="61.5" viewBox="0,0,65.5,61.5"><g transform="translate(-205.25,-148.75)"><g data-paper-data="{&quot;isPaintingLayer&quot;:true}" fill-rule="nonzero" stroke-width="0.5" stroke-linecap="butt" stroke-linejoin="miter" stroke-miterlimit="10" stroke-dasharray="" stroke-dashoffset="0" style="mix-blend-mode: normal"><path d="M205.5,210v-61h65v61z" fill="#ff0000" stroke="#000000"/><path d="M231.38197,190.55902c-0.55902,-1.11803 0.55902,-1.67705 0.55902,-1.67705l2,-1c1.3266,-0.64974 2.93315,-0.58078 4.25371,-1.24271c0.68033,-0.34102 0.96153,-1.2022 1.57442,-1.6533c1.86651,-1.37381 4.01044,-2.18535 5.90085,-3.59926c1.14393,-0.85559 2.74557,-1.04492 3.76673,-2.04385c0.55119,-0.53919 -0.72729,-1.39101 -1.28504,-1.92342c-0.01178,-0.01124 -0.04093,-0.03994 -0.0849,-0.08354c-1.8473,0.05235 -3.75123,-0.08588 -5.56675,-0.08588c-3.76078,0 -9.07978,-0.9564 -12.726,-0.0304c-2.33362,0.59265 -4.62956,1.62495 -7.07377,2.01426c-2.25857,0.35975 -4.90332,0.01614 -7.20023,0.01614c0,0 -1.25,0 -1.25,-1.25c0,-1.25 1.25,-1.25 1.25,-1.25c2.15616,0 4.68229,0.36679 6.79977,0.01614c2.39188,-0.39609 4.63001,-1.44336 6.92623,-1.98574c2.44362,-0.57719 5.75501,-0.0304 8.274,-0.0304c2.66243,0 5.32486,0 7.9873,0c-0.55444,-0.55867 -0.98006,-0.99024 -1.00135,-1.01911c-1.39102,-1.88654 -2.03453,-4.37268 -3.2673,-6.28353c-1.25199,-1.94065 -3.70401,-3.33062 -4.66064,-5.54884c-0.01568,-0.03636 -0.03099,-0.07285 -0.04595,-0.10946l-0.01206,0.00603l-1.10679,-2.21358c-0.09145,-0.1737 -0.14321,-0.37156 -0.14321,-0.58151c0,-0.69036 0.55964,-1.25 1.25,-1.25c0.20995,0 0.4078,0.05176 0.58151,0.14321l1.97751,0.98875l-0.0653,0.1306l0.39017,0.10355c1.19911,2.39822 2.58837,2.60102 4.46447,4.46447c2.32986,2.31415 4.51337,4.66799 6.64961,7.16055c0.91069,1.37738 3.18172,4.05858 1.98729,6.02814c-0.21109,0.34809 -0.575,0.47763 -0.99995,0.51476c0.65791,0.85764 0.9294,1.83723 0.078,3.37314c-0.8359,1.50796 -3.01544,1.69353 -4.39352,2.72965c-1.90127,1.42947 -4.06676,2.25465 -5.9389,3.62724c-0.73072,0.53574 -1.15036,1.47769 -1.96111,1.88223c-1.30772,0.65251 -2.9102,0.55508 -4.21076,1.22175l-2,1c0,0 -1.11803,0.55902 -1.67705,-0.55902zM248.92532,174.70398c0.19255,0.00286 0.38431,0.01566 0.57468,0.04602c0.36962,0.05894 0.88316,0.83113 1.01474,0.48073c0.42077,-1.12049 -1.3341,-1.98758 -2.00738,-2.97715c-1.8214,-2.11754 -3.73167,-4.68245 -5.87547,-6.69646c1.32044,2.27185 2.42898,4.72533 3.88216,6.71199c0.67499,0.92279 1.55752,1.66554 2.41127,2.43487z" fill="#efff00" stroke="none"/></g></g></svg>