<svg version="1.1" xmlns="http://www.w3.org/2000/svg" xmlns:xlink="http://www.w3.org/1999/xlink" width="55.5" height="52.38679" viewBox="0,0,55.5,52.38679"><g transform="translate(-207.25,-161.75)"><g data-paper-data="{&quot;isPaintingLayer&quot;:true}" fill-rule="nonzero" stroke-width="0.5" stroke-linecap="butt" stroke-linejoin="miter" stroke-miterlimit="10" stroke-dasharray="" stroke-dashoffset="0" style="mix-blend-mode: normal"><path d="M207.5,213.88679v-51.88679h55v51.88679z" fill="#ff0000" stroke="#000000"/><path d="M230.33596,198.54249c-0.38968,-0.36006 -1.0917,-0.31332 -1.56246,-0.58612c0.02089,0.2832 -0.06664,0.61066 -0.398,0.93582c-0.89219,0.8755 -1.76769,-0.01669 -1.76769,-0.01669l-1.22619,-1.31497c-0.76599,-1.40517 -1.95249,-2.53673 -2.89568,-3.82964c-2.03295,-2.78675 -1.77465,-5.45217 -5.38123,-6.54503c0,0 -1.18586,-0.39529 -0.79057,-1.58114c0.39529,-1.18586 1.58114,-0.79057 1.58114,-0.79057c0.90385,0.32181 1.93889,0.39668 2.71156,0.96545c0.74803,0.55062 1.26968,1.26311 1.69447,2.04229c4.47883,0.64892 5.04869,5.19006 8.026,8.20061c0.61167,0.6185 1.7911,0.58991 2.24361,1.33283c0.45963,0.75462 0.11938,1.76311 0.17907,2.64468l-1.25,-0.5l-1.25,0.5c0.0377,-0.28535 0.20948,-0.60639 0.26128,-0.89549l-0.26128,-0.10451c0,0 0,-0.20981 0.08596,-0.45752zM224.51406,192.26911c0.64765,0.87497 1.37927,1.69486 2.03929,2.56121c-0.83005,-1.46087 -1.68027,-2.97877 -2.80676,-3.85036c0.22434,0.45432 0.47203,0.89001 0.76747,1.28915z" fill="#ff0000" stroke="none"/><path d="M249.5,184.75c1.25,0 1.25,1.25 1.25,1.25l-0.18669,2.65716c-0.72831,0.41073 -1.45661,0.82145 -2.18492,1.23218c-1.2947,2.53224 -3.2728,2.63556 -4.86434,4.84155c-0.47423,0.65732 -0.55912,1.57778 -1.13017,2.153c-0.52513,0.52896 -1.46424,0.48181 -2,1c-1.07152,1.03637 -0.94,2.95185 -2,4c-0.6643,0.65687 -4.56805,2.28289 -5.39751,2.1018c-0.96627,-0.21096 -1.41073,-1.39919 -2.21726,-1.97163c-0.66097,-0.46913 -1.57778,-0.55912 -2.153,-1.13017c-0.52896,-0.52513 -0.47295,-1.47295 -1,-2c-0.52705,-0.52705 -1.48029,-0.46572 -2,-1c-1.04112,-1.07033 -0.93605,-2.96343 -2.00546,-4.00549c-0.53786,-0.52411 -1.47632,-0.49322 -2.00597,-1.02563c-1.16799,-1.17406 -1.81136,-2.80407 -2.98857,-3.96888c0,0 -0.88388,-0.88388 0,-1.76777c0.88388,-0.88388 1.76777,0 1.76777,0c1.1574,1.16811 1.79733,2.78448 2.96333,3.944c0.54399,0.54096 1.5087,0.51012 2.04212,1.0615c1.03481,1.06962 0.92479,2.95984 1.99454,3.99451c0.53576,0.51819 1.47295,0.47295 2,1c0.52705,0.52705 0.47506,1.47085 1,2c0.47928,0.48312 1.30751,0.45502 1.847,0.86983c0.5405,0.41558 0.66692,1.36244 1.31828,1.56391c1.07812,0.33347 2.2758,-0.62899 3.06695,-1.43374c1.04508,-1.06303 0.96059,-2.93143 2,-4c0.51971,-0.53428 1.47085,-0.47506 2,-1c0.48312,-0.47928 0.46258,-1.30179 0.86983,-1.847c1.81221,-2.42617 3.74019,-2.47382 5.13566,-5.15845c0.60503,-0.25594 1.21005,-0.51188 1.81508,-0.76782l-0.18669,-1.34284c0,0 0,-1.25 1.25,-1.25z" fill="#fbff00" stroke="none"/><path d="M234.5,197.25c-1.25,0 -1.25,-1.25 -1.25,-1.25c0,-5.33333 0,-12.66667 0,-18c0,-2.94098 0.50586,-5.80715 -0.86803,-8.44098c0,0 -0.55902,-1.11803 0.55902,-1.67705c1.11803,-0.55902 1.67705,0.55902 1.67705,0.55902c1.51604,3.13527 1.13197,6.12812 1.13197,9.55902c0,5.33333 0,10.66667 0,16v2c0,0 0,1.25 -1.25,1.25z" fill="#fbff00" stroke="none"/></g></g></svg>