<svg version="1.1" xmlns="http://www.w3.org/2000/svg" xmlns:xlink="http://www.w3.org/1999/xlink" width="66.5" height="62.5" viewBox="0,0,66.5,62.5"><g transform="translate(-206.75,-148.75)"><g data-paper-data="{&quot;isPaintingLayer&quot;:true}" fill-rule="nonzero" stroke-width="0.5" stroke-linecap="butt" stroke-linejoin="miter" stroke-miterlimit="10" stroke-dasharray="" stroke-dashoffset="0" style="mix-blend-mode: normal"><path d="M207,211v-62h66v62z" fill="#ff0000" stroke="#000000"/><path d="M250.05902,192.11803c-1.11803,0.55902 -1.67705,-0.55902 -1.67705,-0.55902l-0.76585,-1.67513c-1.72437,-0.78836 -4.6661,-1.6848 -6,-3c-0.4695,-0.46291 -0.23155,-1.44474 -0.77328,-1.82057c-0.4484,-0.31108 -1.09963,0.28174 -1.63003,0.15325c-0.27118,-0.0657 -4.43954,-2.17981 -4.59669,-2.33268c-0.53441,-0.51983 -0.47895,-1.46755 -1.00039,-2.00039c-1.07562,-1.09913 -2.8675,-1.19613 -4.09935,-2.11677c-1.18806,-0.88792 -2.24356,-1.99592 -3.57539,-2.64869c0,0 -0.89017,-0.44509 -0.68477,-1.33526c-0.08539,-0.00106 -0.17079,-0.00268 -0.25621,-0.00487v0.4721h-2.5c-0.69036,0 -1.25,-0.55964 -1.25,-1.25c0,-0.499 0.2924,-0.92971 0.7152,-1.13014l1.97578,-0.98789l0.04687,0.09374l0.22495,-0.19227c1.76829,-0.02585 3.62303,-0.11974 5.50583,-0.19999c1.49751,-0.2211 2.99869,-0.38163 4.32697,-0.72591c2.1421,-0.55522 4.07203,-2.37397 6.06186,-3.04431c0.60475,-0.20373 1.33519,0.30027 1.91417,0.03192c1.93607,-0.89733 3.72123,-3.73131 5.66908,-4.70678c1.40699,-0.70462 3.1102,-0.66015 4.52208,-1.35493l2.28719,-0.03344c0,0 1.25,0 1.25,1.25c0,1.25 -1.25,1.25 -1.25,1.25l-1.71281,-0.03344c-1.24229,0.63167 -2.7662,0.55109 -4.01259,1.17463c-1.98925,0.99517 -3.76684,3.80194 -5.79625,4.76366c-0.62837,0.29778 -1.42542,-0.18574 -2.08583,0.03192c-0.90414,0.298 -1.8157,0.84172 -2.74443,1.40064c1.14926,0.08935 2.27534,0.23184 3.36392,0.4475c2.39941,0.47535 4.77658,1.33164 7.18822,1.73123c4.63025,0.76719 10.09477,-0.01614 14.79977,-0.01614c0,0 1.25,0 1.25,1.25c0,1.25 -1.25,1.25 -1.25,1.25c-4.86145,0 -10.40624,0.74696 -15.20023,-0.01614c-2.44163,-0.38866 -4.85689,-1.25287 -7.2806,-1.74801c-2.98776,-0.61036 -6.25223,-0.5642 -9.48883,-0.44096c-1.08989,0.23696 -2.17924,0.4346 -3.26975,0.56575c0.95409,0.6645 1.83082,1.45552 2.75857,2.15817c0.19034,0.14416 4.35279,2.33573 4.36512,2.3477c0.53477,0.51895 0.48154,1.46397 0.99961,1.99961c1.5313,1.58324 4.33003,0.88454 5.77328,1.82057c0.69943,0.45362 0.64163,1.58559 1.22672,2.17943c1.1855,1.20324 4.51443,2.21139 6,3l1.23415,2.32487c0,0 0.55902,1.11803 -0.55902,1.67705z" fill="#efff00" stroke="none"/></g></g></svg>