<svg version="1.1" xmlns="http://www.w3.org/2000/svg" xmlns:xlink="http://www.w3.org/1999/xlink" width="40" height="40" viewBox="0,0,40,40"><g transform="translate(-220,-160)"><g data-paper-data="{&quot;isPaintingLayer&quot;:true}" fill-rule="nonzero" stroke-linecap="butt" stroke-linejoin="miter" stroke-miterlimit="10" stroke-dasharray="" stroke-dashoffset="0" style="mix-blend-mode: normal"><path d="M259,180c0,10.49341 -8.50659,19 -19,19c-10.49341,0 -19,-8.50659 -19,-19c0,-10.49341 8.50659,-19 19,-19c10.49341,0 19,8.50659 19,19z" fill="#ffff00" stroke="#000000" stroke-width="2"/><path d="M239.01374,191.63048c-1.2019,-0.3434 -0.8585,-1.54531 -0.8585,-1.54531l0.42762,-1.3191c1.18326,-1.89322 2.42287,-3.76252 3.55472,-5.68677c0.03322,-0.05647 1.07326,-1.93578 1.35757,-2.44533c-0.90158,0.52024 -2.30947,0.84493 -3.62351,1.0524l0.02364,0.07092l-1.68661,0.5622c-0.1321,0.04749 -0.27451,0.07337 -0.42297,0.07337c-0.69036,0 -1.25,-0.55964 -1.25,-1.25c0,-0.14845 0.02588,-0.29086 0.07337,-0.42297l0.40109,-1.20327c0.72596,-3.55229 2.09697,-6.50309 2.09697,-10.23091c0,0 0,-1.25 1.25,-1.25c1.25,0 1.25,1.25 1.25,1.25c0,3.60209 -1.18975,6.52809 -1.96324,9.86108c2.14248,-1.62913 6.64264,-2.34625 6.96183,0.91253c0.01269,0.12952 -1.40563,2.6544 -1.58447,2.9763c-1.3386,2.40948 -2.85767,4.71826 -4.31841,7.05545l-0.14381,0.6809c0,0 -0.3434,1.2019 -1.54531,0.8585z" fill="#bbbb00" stroke="none" stroke-width="0.5"/></g></g></svg>