<svg version="1.1" xmlns="http://www.w3.org/2000/svg" xmlns:xlink="http://www.w3.org/1999/xlink" width="60.5" height="56.5" viewBox="0,0,60.5,56.5"><g transform="translate(-209.75,-151.75)"><g data-paper-data="{&quot;isPaintingLayer&quot;:true}" fill-rule="nonzero" stroke-width="0.5" stroke-linecap="butt" stroke-linejoin="miter" stroke-miterlimit="10" stroke-dasharray="" stroke-dashoffset="0" style="mix-blend-mode: normal"><path d="M210,208v-56h60v56z" fill="#ff0000" stroke="#000000"/><path d="M266.61759,178.55991c-0.55991,1.11759 -1.6775,0.55768 -1.6775,0.55768l-2.13272,-1.07808c-1.94655,-1.62711 -4.0259,-2.58594 -6.03826,-4.02546c-3.06776,-2.19448 -5.71272,-5.68659 -8.38523,-8.3624c-1.22775,-1.22927 -2.37604,-2.11181 -2.92096,-3.37712c-0.72064,0.00512 -1.08096,-0.71551 -1.08096,-0.71551l-0.60594,-1.21187c-0.16239,0.27851 -0.35769,0.52719 -0.61887,0.71617c-0.5401,0.39082 -1.44269,-0.36586 -2,0c-0.55118,0.36183 -0.30379,1.35766 -0.77328,1.82057c-0.95375,0.94038 -3.06119,1.32135 -4.153,2.13017c-1.97665,1.46432 -3.73867,3.24552 -5.71234,4.72025c-0.61824,0.46195 -1.49661,0.54602 -2.04104,1.09301c-0.55101,0.5536 -0.5484,1.51788 -1.10403,2.06685c-0.52692,0.5206 -1.45715,0.47477 -1.9896,0.98972c-1.07156,1.03633 -0.94591,2.94591 -2,4c-0.6204,0.6204 -1.54991,0.82277 -2.32487,1.23415l-2,1c0,0 -1.11803,0.55902 -1.67705,-0.55902c-0.55902,-1.11803 0.55902,-1.67705 0.55902,-1.67705l2,-1c2.77165,-1.26716 1.64307,-2.67704 3.67513,-4.76585c0.52297,-0.53758 1.47686,-0.4832 2.0104,-1.01028c0.54286,-0.53628 0.5229,-1.48893 1.06407,-2.02692c0.6348,-0.63108 1.61159,-0.80285 2.32553,-1.34278c1.97694,-1.4951 3.75342,-3.29254 5.75299,-4.75018c1.15215,-0.83989 2.84634,-0.85419 3.847,-1.86983c0.58509,-0.59384 0.53589,-1.71282 1.22672,-2.17943c0.55246,-0.37315 1.42558,0.33837 2,0c0.45663,-0.26898 0.35942,-0.99714 0.53913,-1.4957c0,0 0.55902,-1.11803 1.67705,-0.55902c0.47809,0.23905 0.64952,0.58031 0.68914,0.89267c0.31075,0.06259 0.57978,0.24043 0.76057,0.48701l1.49127,1.98836l-0.23702,0.17776c3.88933,3.76059 7.07973,8.45689 11.46791,11.55818c1.97658,1.39693 4.05187,2.36079 5.94997,3.96465l1.87905,0.93181c0,0 1.11759,0.55991 0.55768,1.6775z" fill="#f5ff67" stroke="none"/><path d="M239.5,196.25c-1.25,0 -1.25,-1.25 -1.25,-1.25v-1c0,-8.2615 1,-15.793 1,-24c0,0 0,-1.25 1.25,-1.25c1.25,0 1.25,1.25 1.25,1.25c0,3.13419 0.69887,7.24923 -0.03344,10.28719c-0.17467,0.7246 -0.81222,1.27869 -1,2c-0.87176,3.34866 0.03344,8.22682 0.03344,11.71281v1c0,0 0,1.25 -1.25,1.25z" fill="#f5ff67" stroke="none"/></g></g></svg>